# AST/ASF file generated using VICON BodyLanguage
# -----------------------------------------------
:version 1.10
:name VICON
:units
  mass 1.0
  length 0.45
  angle deg
:documentation
   .ast/.asf automatically generated from VICON data using
   VICON BodyBuilder and BodyLanguage model FoxedUp or BRILLIANT.MOD
:root
   order TX TY TZ RX RY RZ
   axis XYZ
   position 0 0 0  
   orientation 0 0 0 
:bonedata
  begin
     id 1 
     name lhipjoint
     direction 0.523584 -0.783993 0.333487 
     length 2.44404 
     axis 0 0 0  XYZ
  end
  begin
     id 2 
     name lfemur
     direction 0.34202 -0.939693 0  
     length 7.29523  
     axis 0 0 20  XYZ
    dof rx ry rz
    limits (-160.0 20.0)
           (-70.0 70.0)
           (-60.0 70.0)
  end
  begin
     id 3 
     name ltibia
     direction 0.34215 -0.939645 0   
     length 7.81194   
     axis 0 0 20   XYZ
    dof rx
    limits (-10.0 170.0)
  end
  begin
     id 4 
     name lfoot
     direction 0.0941847 -0.25877 0.961336   
     length 2.41437   
     axis -90 7.62852e-016 20   XYZ
    dof rx rz
    limits (-45.0 90.0)
           (-70.0 20.0)
  end
  begin
     id 5 
     name ltoes
     direction 1.53526e-011 -4.21768e-011 1   
     length 1.2048   
     axis -90 7.62852e-016 20   XYZ
    dof rx
    limits (-90.0 20.0)
  end
  begin
     id 6 
     name rhipjoint
     direction -0.46599 -0.814191 0.346332   
     length 2.35339  
     axis 0 0 0  XYZ 
  end
  begin
     id 7 
     name rfemur
     direction -0.34202 -0.939693 0   
     length 7.34966   
     axis 0 0 -20   XYZ
    dof rx ry rz
    limits (-160.0 20.0)
           (-70.0 70.0)
           (-70.0 60.0)
  end
  begin
     id 8 
     name rtibia
     direction -0.34202 -0.939693 0   
     length 7.89934   
     axis 0 0 -20   XYZ
    dof rx
    limits (-10.0 170.0)
 end
 begin
     id 9 
     name rfoot
     direction -0.0975468 -0.268008 0.958466   
     length 2.27725  
     axis -90 -7.62852e-016 -20   XYZ
    dof rx rz
    limits (-45.0 90.0)
           (-20.0 70.0)
  end
  begin
     id 10 
     name rtoes
     direction -1.53563e-011 -4.22022e-011 1   
     length 1.13683   
     axis -90 -7.62852e-016 -20   XYZ
    dof rx
    limits (-90.0 20.0)
  end
  begin
     id 11 
     name lowerback
     direction -0.00456414 0.999242 -0.0386661   
     length 2.16968   
     axis 0 0 0   XYZ
    dof rx ry rz
    limits (-20.0 45.0)
           (-30.0 30.0)
           (-30.0 30.0)
  end
  begin
     id 12 
     name upperback
     direction 0.0297078 0.998988 0.0337799   
     length 2.15674   
     axis 0 0 0   XYZ
    dof rx ry rz
    limits (-20.0 45.0)
           (-30.0 30.0)
           (-30.0 30.0)
  end
  begin
     id 13 
     name thorax
     direction 0.0309305 0.998202 0.0513506   
     length 2.16319   
     axis 0 0 0   XYZ
    dof rx ry rz
    limits (-20.0 45.0)
           (-30.0 30.0)
           (-30.0 30.0)
  end
  begin
     id 14 
     name lowerneck
     direction -0.103039 0.983474 0.148872   
     length 1.64318   
     axis 0 0 0   XYZ
    dof rx ry rz
    limits (-20.0 45.0)
           (-30.0 30.0)
           (-30.0 30.0)
  end
  begin
     id 15 
     name upperneck
     direction 0.128124 0.971079 -0.201469   
     length 1.68242   
     axis 0 0 0   XYZ
    dof rx ry rz
    limits (-20.0 45.0)
           (-30.0 30.0)
           (-30.0 30.0)
  end
  begin
     id 16
     name head
     direction 0.0496365 0.994919 -0.0875941  
     length 1.70108  
     axis 0 0 0   XYZ
    dof rx ry rz
    limits (-20.0 45.0)
           (-30.0 30.0)
           (-30.0 30.0)
  end
  begin
     id 17 
     name lclavicle
     direction 0.887148 0.430222 -0.166967  
     length 3.25763  
     axis 0 0 0   XYZ
    dof ry rz
    limits (-20.0 10.0)
           (0.0 20.0)
  end
  begin
     id 18 
     name lhumerus
     direction 1 -4.48962e-011 1.92156e-027   
     length 5.10755   
     axis 180 -30 -90   XYZ
    dof rx ry rz
    limits (-60.0 90.0)
           (-90.0 90.0)
           (-90.0 90.0)
  end
  begin
     id 19
     name lradius
     direction 1 -4.48958e-011 7.10963e-027   
     length 3.36253   
     axis 180 -30 -90   XYZ
    dof rx
    limits (-10.0 170.0)
  end
  begin
     id 20
     name lwrist
     direction 1 -4.48946e-011 1.82396e-026   
     length 1.68127   
     axis -1.15222e-014 90 90   XYZ
    dof ry
    limits (-180.0 0.0)
 end
  begin
     id 21 
     name lhand
     direction 1 -4.48919e-011 3.64759e-026   
     length 0.619088   
     axis -2.32787e-014 90 90   XYZ
    dof rx rz
    limits (-90.0 90.0)
           (-45.0 45.0)
  end
  begin
     id 22 
     name lfingers
     direction 1 -4.49012e-011 7.29744e-026   
     length 0.499125   
     axis -4.6558e-014 90 90   XYZ
    dof rx
    limits (0.0 90.0)
  end
  begin
     id 23
     name lthumb
     direction 0.707107 -6.35028e-011 0.707107   
     length 0.716646   
     axis -90 45 3.78391e-014   XYZ
    dof rx rz
    limits (-45.0 45.0)
           (-45.0 45.0)
  end
  begin
     id 24 
     name rclavicle
     direction -0.82886 0.533198 -0.169384   
     length 3.20647  
     axis 0 0 0   XYZ 
    dof ry rz
    limits (-10.0 20.0)
           (-20.0 0.0)
  end
  begin
     id 25 
     name rhumerus
     direction -1 -4.48973e-011 3.06863e-027  
     length 5.27387   
     axis 180 30 90   XYZ
    dof rx ry rz
    limits (-90.0 60.0)
           (-90.0 90.0)
           (-90.0 90.0)
  end
  begin
     id 26 
     name rradius
     direction -1 -4.48988e-011 9.4797e-027   
     length 3.40144   
     axis 180 30 90   XYZ
    dof rx
    limits (-10.0 170.0)
  end
  begin
     id 27 
     name rwrist
     direction -1 -4.48897e-011 1.82366e-026   
     length 1.70072   
     axis -1.15222e-014 -90 -90   XYZ
    dof ry
    limits (-180.0 0.0)
  end
  begin
     id 28
     name rhand
     direction -1 -4.48965e-011 3.64815e-026   
     length 0.742821   
     axis -2.32787e-014 -90 -90   XYZ
    dof rx rz
    limits (-90.0 90.0)
           (-45.0 45.0)
  end
  begin
     id 29
     name rfingers
     direction -1 -4.49016e-011 7.29754e-026   
     length 0.598881   
     axis -4.6558e-014 -90 -90   XYZ
    dof rx
    limits (0.0 90.0)
  end
  begin
     id 30
     name rthumb
     direction -0.707107 -6.3488e-011 0.707107   
     length 0.859877   
     axis -90 -45 -3.78391e-014   XYZ
    dof rx rz
    limits (-45.0 45.0)
           (-45.0 45.0)
  end
:hierarchy
  begin
    root lhipjoint rhipjoint lowerback
    lhipjoint lfemur
    lfemur ltibia
    ltibia lfoot
    lfoot ltoes
    rhipjoint rfemur
    rfemur rtibia
    rtibia rfoot
    rfoot rtoes
    lowerback upperback
    upperback thorax
    thorax lowerneck lclavicle rclavicle
    lowerneck upperneck
    upperneck head
    lclavicle lhumerus
    lhumerus lradius
    lradius lwrist
    lwrist lhand lthumb
    lhand lfingers
    rclavicle rhumerus
    rhumerus rradius
    rradius rwrist
    rwrist rhand rthumb
    rhand rfingers
  end

#!OML:ASF F:\Work\Patient Classification 1\justin\Session 1\justin.ASF
:FULLY-SPECIFIED
:DEGREES
2260
root 2.88853 15.3894 14.6954 323.832 -95.8734 -348.925
lowerback 32.1794 4.73776 2.84326
upperback 15.3368 5.05243 5.2495
thorax -0.239258 1.59939 2.65298
lowerneck -15.5604 -6.84811 -14.6981
upperneck 19.4119 -9.23545 14.0302
head 10.1133 -4.00653 6.14581
rclavicle 1.47101e-014 -1.11319e-014
rhumerus -21.0879 1.48771 -75.0316
rradius 58.207
rwrist 4.31066
rhand -35.4149 14.814
rfingers 7.12502
rthumb -8.54523 -14.9931
lclavicle 1.47101e-014 -1.11319e-014
lhumerus -24.4883 -25.6443 95.6115
lradius 80.8425
lwrist -3.01382
lhand -36.9873 18.678
lfingers 7.12502
lthumb -10.0624 48.4174
rfemur -25.9589 -20.0079 5.26174
rtibia 74.2044
rfoot 0.592157 -5.20128
rtoes -0.133724
lfemur -49.9117 16.8627 -13.2695
ltibia 65.9354
lfoot 18.4309 -10.7842
ltoes -32.1758
2261
root 2.89039 15.4055 14.6884 323.412 -96.0388 -348.293
lowerback 32.1321 4.74075 3.1176
upperback 15.3083 5.1339 5.16858
thorax -0.219506 1.66289 2.38381
lowerneck -15.6274 -6.86119 -14.4227
upperneck 19.5678 -9.39185 14.2201
head 10.2036 -4.03978 6.14916
rclavicle -1.63003e-014 -1.11319e-014
rhumerus -21.2451 1.517 -75.1725
rradius 58.3934
rwrist 4.00618
rhand -35.6929 14.3669
rfingers 7.12502
rthumb -8.81342 -15.4291
lclavicle -1.63003e-014 -1.11319e-014
lhumerus -24.5363 -26.0567 95.2149
lradius 80.9809
lwrist -2.70675
lhand -37.2043 18.6278
lfingers 7.12502
lthumb -10.2717 48.357
rfemur -26.1132 -19.9009 5.62199
rtibia 74.0208
rfoot 0.689231 -4.71781
rtoes -4.83429
lfemur -50.0669 16.943 -12.9935
ltibia 66.0643
lfoot 19.4712 -8.48864
ltoes -26.8569
2262
root 2.9015 15.4415 14.683 326.092 -95.9927 -350.814
lowerback 32.0715 4.78525 3.05989
upperback 15.3666 5.15876 5.01641
thorax -0.117906 1.68051 2.24445
lowerneck -15.8144 -6.8767 -14.222
upperneck 19.6971 -9.50098 14.3734
head 10.302 -4.05367 6.15661
rclavicle 4.21423e-014 5.88403e-014
rhumerus -21.1871 1.3091 -75.2669
rradius 58.5431
rwrist 3.99913
rhand -35.5569 14.2579
rfingers 7.12502
rthumb -8.68225 -15.5436
lclavicle 4.21423e-014 5.88403e-014
lhumerus -24.4274 -26.2982 94.8549
lradius 81.0386
lwrist -2.52691
lhand -37.3639 18.4221
lfingers 7.12502
lthumb -10.4257 48.1436
rfemur -26.162 -19.9611 5.48579
rtibia 73.74
rfoot 0.757338 -4.52971
rtoes -6.40146
lfemur -49.9672 16.3752 -12.368
ltibia 66.2402
lfoot 20.8337 -2.17303
ltoes -7.32607
2263
root 2.89829 15.4473 14.6793 330.511 -95.8286 -355.155
lowerback 32.0968 4.86258 2.79266
upperback 15.4346 5.17052 4.94611
thorax -0.0703966 1.6732 2.31496
lowerneck -15.8489 -6.92926 -14.3161
upperneck 19.7422 -9.60092 14.5546
head 10.3575 -4.08792 6.22648
rclavicle -6.67916e-014 -9.54166e-015
rhumerus -21.1343 0.963793 -75.1856
rradius 58.6968
rwrist 4.36695
rhand -35.2876 14.3573
rfingers 7.12502
rthumb -8.42235 -15.4547
lclavicle -6.67916e-014 -9.54166e-015
lhumerus -24.3488 -26.3803 94.8702
lradius 81.0351
lwrist -2.57221
lhand -37.5718 18.6754
lfingers 7.12502
lthumb -10.6262 48.3867
rfemur -26.222 -20.1036 4.94651
rtibia 73.636
rfoot 0.659086 -4.3339
rtoes -6.72841
lfemur -50.0742 16.5624 -13.0548
ltibia 66.3573
lfoot 20.1985 -6.3747
ltoes -19.172
2264
root 2.8958 15.4495 14.6776 333.869 -95.7167 -358.418
lowerback 32.1473 4.8561 2.40949
upperback 15.4523 5.05311 4.98632
thorax -0.109868 1.58759 2.61061
lowerneck -15.7564 -6.93822 -14.4656
upperneck 19.7551 -9.61157 14.6346
head 10.3589 -4.10059 6.28284
rclavicle 2.22639e-014 9.54166e-015
rhumerus -21.1554 1.40887 -75.1294
rradius 58.9322
rwrist 4.27002
rhand -35.627 14.2233
rfingers 7.12502
rthumb -8.74987 -15.5753
lclavicle 2.22639e-014 9.54166e-015
lhumerus -24.4186 -26.0331 94.9342
lradius 81.121
lwrist -2.59948
lhand -37.8406 18.9683
lfingers 7.12502
lthumb -10.8856 48.6662
rfemur -26.2815 -20.1086 4.55535
rtibia 73.5688
rfoot 0.143605 -4.49162
rtoes -3.49852
lfemur -50.0731 16.5759 -13.4479
ltibia 66.4635
lfoot 20.6873 -3.14029
ltoes -11.7651
